{
  "accessors": [
    {
      "bufferView": 2,
      "componentType": 5126,
      "count": 876,
      "max": [
        829.268310546875,
        80.856224060058594,
        199.82147216796875
      ],
      "min": [
        754.7406005859375,
        -5.7405986785888672,
        123.80311584472656
      ],
      "type": "VEC3"
    },
    {
      "bufferView": 2,
      "byteOffset": 10512,
      "componentType": 5126,
      "count": 876,
      "max": [
        1,
        1,
        1
      ],
      "min": [
        -1,
        -1,
        -1
      ],
      "type": "VEC3"
    },
    {
      "bufferView": 3,
      "componentType": 5126,
      "count": 876,
      "max": [
        1,
        1,
        1,
        1
      ],
      "min": [
        -0.85641974210739136,
        -1,
        -1,
        -1
      ],
      "type": "VEC4"
    },
    {
      "bufferView": 1,
      "componentType": 5126,
      "count": 876,
      "max": [
        0.99596494436264038,
        0.99800795316696167
      ],
      "min": [
        0.0019880342297255993,
        0.0019920128397643566
      ],
      "type": "VEC2"
    },
    {
      "bufferView": 0,
      "componentType": 5125,
      "count": 1680,
      "max": [
        875
      ],
      "min": [
        0
      ],
      "type": "SCALAR"
    },
    {
      "bufferView": 2,
      "byteOffset": 21024,
      "componentType": 5126,
      "count": 994,
      "max": [
        866.360107421875,
        98.442817687988281,
        199.22561645507812
      ],
      "min": [
        734.2041015625,
        42.824825286865234,
        133.01155090332031
      ],
      "type": "VEC3"
    },
    {
      "bufferView": 2,
      "byteOffset": 32952,
      "componentType": 5126,
      "count": 994,
      "max": [
        1,
        0.99999797344207764,
        1
      ],
      "min": [
        -1,
        -0.99999797344207764,
        -1
      ],
      "type": "VEC3"
    },
    {
      "bufferView": 3,
      "byteOffset": 14016,
      "componentType": 5126,
      "count": 994,
      "max": [
        1,
        1,
        1,
        1
      ],
      "min": [
        -0.76405155658721924,
        -1,
        -1,
        1
      ],
      "type": "VEC4"
    },
    {
      "bufferView": 1,
      "byteOffset": 7008,
      "componentType": 5126,
      "count": 994,
      "max": [
        0.98899275064468384,
        0.99357110261917114
      ],
      "min": [
        0.0019880342297255993,
        0.71891313791275024
      ],
      "type": "VEC2"
    },
    {
      "bufferView": 0,
      "byteOffset": 6720,
      "componentType": 5125,
      "count": 2496,
      "max": [
        993
      ],
      "min": [
        0
      ],
      "type": "SCALAR"
    },
    {
      "bufferView": 2,
      "byteOffset": 44880,
      "componentType": 5126,
      "count": 288,
      "max": [
        891.2725830078125,
        114.99464416503906,
        185.720947265625
      ],
      "min": [
        703.7049560546875,
        13.378405570983887,
        132.22975158691406
      ],
      "type": "VEC3"
    },
    {
      "bufferView": 2,
      "byteOffset": 48336,
      "componentType": 5126,
      "count": 288,
      "max": [
        1,
        1,
        1
      ],
      "min": [
        -1,
        -1,
        -1
      ],
      "type": "VEC3"
    },
    {
      "bufferView": 3,
      "byteOffset": 29920,
      "componentType": 5126,
      "count": 288,
      "max": [
        1,
        1,
        1,
        1
      ],
      "min": [
        -0.76845431327819824,
        -1,
        -1,
        1
      ],
      "type": "VEC4"
    },
    {
      "bufferView": 1,
      "byteOffset": 14960,
      "componentType": 5126,
      "count": 288,
      "max": [
        0.99596494436264038,
        0.79955148696899414
      ],
      "min": [
        0.0019879851024597883,
        0.0019920128397643566
      ],
      "type": "VEC2"
    },
    {
      "bufferView": 0,
      "byteOffset": 16704,
      "componentType": 5125,
      "count": 396,
      "max": [
        287
      ],
      "min": [
        0
      ],
      "type": "SCALAR"
    },
    {
      "bufferView": 2,
      "byteOffset": 51792,
      "componentType": 5126,
      "count": 368,
      "max": [
        812.3865966796875,
        43.982322692871094,
        279.64892578125
      ],
      "min": [
        790.32659912109375,
        40.974521636962891,
        260.7703857421875
      ],
      "type": "VEC3"
    },
    {
      "bufferView": 2,
      "byteOffset": 56208,
      "componentType": 5126,
      "count": 368,
      "max": [
        0.99839353561401367,
        0.99091595411300659,
        0.98985940217971802
      ],
      "min": [
        -0.988639235496521,
        -0.99315237998962402,
        -0.97241520881652832
      ],
      "type": "VEC3"
    },
    {
      "bufferView": 3,
      "byteOffset": 34528,
      "componentType": 5126,
      "count": 368,
      "max": [
        0.98831063508987427,
        0.99227404594421387,
        0.99721980094909668,
        1
      ],
      "min": [
        -0.98828142881393433,
        -0.99812459945678711,
        -0.99721848964691162,
        1
      ],
      "type": "VEC4"
    },
    {
      "bufferView": 1,
      "byteOffset": 17264,
      "componentType": 5126,
      "count": 368,
      "max": [
        0.964866042137146,
        0.95836353302001953
      ],
      "min": [
        0.014380872249603271,
        0.0019920219201594591
      ],
      "type": "VEC2"
    },
    {
      "bufferView": 0,
      "byteOffset": 18288,
      "componentType": 5125,
      "count": 912,
      "max": [
        367
      ],
      "min": [
        0
      ],
      "type": "SCALAR"
    }
  ],
  "asset": {
    "extras": {
      "author": "♡Ellie Yokota♡ (https://sketchfab.com/eymori)",
      "license": "CC-BY-4.0 (http://creativecommons.org/licenses/by/4.0/)",
      "source": "https://sketchfab.com/models/43736bb6a0b64fe8a824542bdbace6bc",
      "title": "Game Prop: Mental Asylum Gurney"
    },
    "generator": "Sketchfab-3.19.6",
    "version": "2.0"
  },
  "bufferViews": [
    {
      "buffer": 0,
      "byteLength": 21936,
      "byteOffset": 0,
      "name": "floatBufferViews",
      "target": 34963
    },
    {
      "buffer": 0,
      "byteLength": 20208,
      "byteOffset": 21936,
      "byteStride": 8,
      "name": "floatBufferViews",
      "target": 34962
    },
    {
      "buffer": 0,
      "byteLength": 60624,
      "byteOffset": 42144,
      "byteStride": 12,
      "name": "floatBufferViews",
      "target": 34962
    },
    {
      "buffer": 0,
      "byteLength": 40416,
      "byteOffset": 102768,
      "byteStride": 16,
      "name": "floatBufferViews",
      "target": 34962
    }
  ],
  "buffers": [
    {
      "byteLength": 143184,
      "uri": "scene.bin"
    }
  ],
  "images": [
    {
      "uri": "textures/Chair_mechanics_baseColor.png"
    },
    {
      "uri": "textures/Chair_mechanics_metallicRoughness.png"
    },
    {
      "uri": "textures/Chair_mechanics_normal.png"
    },
    {
      "uri": "textures/Chair_bedding_normal.png"
    },
    {
      "uri": "textures/Chair_bedding_baseColor.png"
    },
    {
      "uri": "textures/Syringe_baseColor.png"
    },
    {
      "uri": "textures/Chair_base_normal.png"
    },
    {
      "uri": "textures/Chair_base_baseColor.png"
    }
  ],
  "materials": [
    {
      "doubleSided": true,
      "emissiveFactor": [
        0,
        0,
        0
      ],
      "name": "Chair_base",
      "normalTexture": {
        "index": 6,
        "scale": 0,
        "texCoord": 0
      },
      "pbrMetallicRoughness": {
        "baseColorFactor": [
          1,
          1,
          1,
          1
        ],
        "baseColorTexture": {
          "index": 7,
          "texCoord": 0
        },
        "metallicFactor": 1,
        "roughnessFactor": 0.59999999999999998
      }
    },
    {
      "doubleSided": true,
      "name": "Chair_mechanics",
      "normalTexture": {
        "index": 2,
        "scale": 1,
        "texCoord": 0
      },
      "pbrMetallicRoughness": {
        "baseColorFactor": [
          1,
          1,
          1,
          1
        ],
        "baseColorTexture": {
          "index": 0,
          "texCoord": 0
        },
        "metallicFactor": 1,
        "metallicRoughnessTexture": {
          "index": 1,
          "texCoord": 0
        },
        "roughnessFactor": 1
      }
    },
    {
      "doubleSided": true,
      "emissiveFactor": [
        0,
        0,
        0
      ],
      "name": "Chair_bedding",
      "normalTexture": {
        "index": 3,
        "scale": 0.42244664630000001,
        "texCoord": 0
      },
      "pbrMetallicRoughness": {
        "baseColorFactor": [
          1,
          1,
          1,
          1
        ],
        "baseColorTexture": {
          "index": 4,
          "texCoord": 0
        },
        "metallicFactor": 0,
        "roughnessFactor": 0.59999999999999998
      }
    },
    {
      "alphaMode": "BLEND",
      "doubleSided": true,
      "emissiveFactor": [
        0,
        0,
        0
      ],
      "name": "Syringe",
      "pbrMetallicRoughness": {
        "baseColorFactor": [
          1,
          1,
          1,
          0.33365091460000001
        ],
        "baseColorTexture": {
          "index": 5,
          "texCoord": 0
        },
        "metallicFactor": 0,
        "roughnessFactor": 0.59999999999999998
      }
    }
  ],
  "meshes": [
    {
      "name": "polySurface40_Chair_base_0",
      "primitives": [
        {
          "attributes": {
            "NORMAL": 1,
            "POSITION": 0,
            "TANGENT": 2,
            "TEXCOORD_0": 3
          },
          "indices": 4,
          "material": 0,
          "mode": 4
        }
      ]
    },
    {
      "name": "polySurface40_Chair_mechanics_0",
      "primitives": [
        {
          "attributes": {
            "NORMAL": 6,
            "POSITION": 5,
            "TANGENT": 7,
            "TEXCOORD_0": 8
          },
          "indices": 9,
          "material": 1,
          "mode": 4
        }
      ]
    },
    {
      "name": "polySurface40_Chair_bedding_0",
      "primitives": [
        {
          "attributes": {
            "NORMAL": 11,
            "POSITION": 10,
            "TANGENT": 12,
            "TEXCOORD_0": 13
          },
          "indices": 14,
          "material": 2,
          "mode": 4
        }
      ]
    },
    {
      "name": "pCylinder34_Syringe_0",
      "primitives": [
        {
          "attributes": {
            "NORMAL": 16,
            "POSITION": 15,
            "TANGENT": 17,
            "TEXCOORD_0": 18
          },
          "indices": 19,
          "material": 3,
          "mode": 4
        }
      ]
    }
  ],
  "nodes": [
    {
      "children": [
        1
      ],
      "name": "RootNode (gltf orientation matrix)",
      "rotation": [
        -0.70710678118654746,
        -0,
        -0,
        0.70710678118654757
      ]
    },
    {
      "children": [
        2
      ],
      "name": "RootNode (model correction matrix)"
    },
    {
      "children": [
        3
      ],
      "matrix": [
        1,
        0,
        0,
        0,
        0,
        0,
        1,
        0,
        0,
        -1,
        0,
        0,
        0,
        0,
        0,
        1
      ],
      "name": "3fe2003a632f49f19be4a10d9d723c32.fbx"
    },
    {
      "children": [
        4,
        8
      ],
      "name": "RootNode"
    },
    {
      "children": [
        5,
        6,
        7
      ],
      "matrix": [
        0.0099999997764825821,
        0,
        0,
        0,
        0,
        0.0099999997764825821,
        0,
        0,
        0,
        0,
        0.0099999997764825821,
        0,
        0,
        -1.7763568394002505e-15,
        0,
        1
      ],
      "name": "polySurface40"
    },
    {
      "mesh": 0,
      "name": "polySurface40_Chair_base_0"
    },
    {
      "mesh": 1,
      "name": "polySurface40_Chair_mechanics_0"
    },
    {
      "mesh": 2,
      "name": "polySurface40_Chair_bedding_0"
    },
    {
      "children": [
        9
      ],
      "matrix": [
        0.0099888208216883743,
        0.00047270934183332947,
        0,
        0,
        -0.00047270934183332947,
        0.0099888208216883743,
        0,
        0,
        0,
        0,
        0.0099999997764825821,
        0,
        0.029182365164160728,
        0.060467090457677841,
        -1.1377567052841187,
        1
      ],
      "name": "pCylinder34"
    },
    {
      "mesh": 3,
      "name": "pCylinder34_Syringe_0"
    }
  ],
  "samplers": [
    {
      "magFilter": 9729,
      "minFilter": 9987,
      "wrapS": 10497,
      "wrapT": 10497
    }
  ],
  "scene": 0,
  "scenes": [
    {
      "name": "OSG_Scene",
      "nodes": [
        0
      ]
    }
  ],
  "textures": [
    {
      "sampler": 0,
      "source": 0
    },
    {
      "sampler": 0,
      "source": 1
    },
    {
      "sampler": 0,
      "source": 2
    },
    {
      "sampler": 0,
      "source": 3
    },
    {
      "sampler": 0,
      "source": 4
    },
    {
      "sampler": 0,
      "source": 5
    },
    {
      "sampler": 0,
      "source": 6
    },
    {
      "sampler": 0,
      "source": 7
    }
  ]
}

